<?xml version="1.0" encoding="UTF-8"?>
<svg width="24px" height="24px" viewBox="0 0 24 24" version="1.1" xmlns="http://www.w3.org/2000/svg" xmlns:xlink="http://www.w3.org/1999/xlink">
    <!-- Generator: Sketch 48.1 (47250) - http://www.bohemiancoding.com/sketch -->
    <title>Github-black</title>
    <desc>Created with Sketch.</desc>
    <defs></defs>
    <g id="Home-3" stroke="none" stroke-width="1" fill="none" fill-rule="evenodd" transform="translate(-1222.000000, -3054.000000)">
        <g id="Group-10" transform="translate(1112.000000, 3054.000000)" fill="#FFFFFF">
            <path d="M121.99925,0 C115.373,0 110,5.39354605 110,12.048322 C110,17.3703356 113.438,21.8859151 118.20725,23.4792061 C118.80725,23.5898931 119.02625,23.2179244 119.02625,22.8986638 C119.02625,22.6125341 119.01575,21.8550432 119.00975,20.8498241 C115.6715,21.5779491 114.96725,19.2346969 114.96725,19.2346969 C114.422,17.8432027 113.63525,17.4727399 113.63525,17.4727399 C112.5455,16.7250377 113.71775,16.7400971 113.71775,16.7400971 C114.9215,16.8251831 115.55525,17.9817497 115.55525,17.9817497 C116.62625,19.8227689 118.364,19.2911699 119.048,18.9824509 C119.15675,18.2038768 119.46725,17.6730308 119.81,17.3718415 C117.14525,17.0676404 114.344,16.0345614 114.344,11.4180835 C114.344,10.1026396 114.81125,9.02739405 115.57925,8.1848172 C115.4555,7.8798631 115.04375,6.6555289 115.69625,4.99672925 C115.69625,4.99672925 116.70425,4.67295083 118.99625,6.23160507 C119.954,5.96429963 120.98,5.8310234 122.00075,5.82575259 C123.02,5.8310234 124.04675,5.96429963 125.00525,6.23160507 C127.29575,4.67295083 128.3015,4.99672925 128.3015,4.99672925 C128.95625,6.6555289 128.5445,7.8798631 128.42075,8.1848172 C129.19025,9.02739405 129.6545,10.1026396 129.6545,11.4180835 C129.6545,16.045856 126.84875,17.0646285 124.17575,17.3628059 C124.60625,17.7347746 124.99025,18.4696763 124.99025,19.593865 C124.99025,21.2044744 124.97525,22.503353 124.97525,22.8986638 C124.97525,23.2209363 125.19125,23.5959169 125.80025,23.4777001 C130.565,21.8813972 134,17.3688296 134,12.048322 C134,5.39354605 128.627,0 121.99925,0" id="Github"></path>
        </g>
    </g>
</svg>