<svg width="231" height="50" xmlns="http://www.w3.org/2000/svg" xmlns:xlink="http://www.w3.org/1999/xlink"><defs><path d="M33.317 11.186h10.062v38.43h-6.488v-30.02L23.477 46.262h-3.629L6.487 19.596v30.02H0v-38.43h10.115L21.717 35.32l11.6-24.135zm85.654 0h6.487v38.43h-7.038l-21.772-28.04v28.04h-6.487v-38.43h6.487l22.323 28.698V11.186zm13.604 0h27.656v6.101h-21.167v10.171h18.417v5.774h-18.417v10.28h21.167v6.104h-27.656v-38.43zm34.773 0h29.798v5.936h-11.654v32.494h-6.489V17.122h-11.655v-5.936zm33.357 0h29.798v5.936H218.85v32.494h-6.488V17.122h-11.656v-5.936zM59.622 40.819c1.76 2.053 4.142 3.08 7.148 3.08 3.005 0 5.388-1.027 7.148-3.08 1.759-2.052 2.639-4.838 2.639-8.357V11.185h6.487v21.552c0 5.535-1.521 9.796-4.563 12.782C75.438 48.51 71.534 50 66.77 50c-4.765 0-8.668-1.492-11.712-4.48-3.041-2.987-4.562-7.248-4.562-12.783V11.185h6.488v21.277c0 3.519.878 6.305 2.638 8.357zm20.12-33.702c-.984 0-1.814-.348-2.488-1.042-.676-.695-1.012-1.533-1.012-2.517a3.43 3.43 0 0 1 1.041-2.517A3.425 3.425 0 0 1 79.8 0c.984 0 1.824.338 2.517 1.012.695.676 1.042 1.504 1.042 2.489 0 .983-.358 1.832-1.07 2.545-.715.715-1.562 1.07-2.546 1.07zm-26.002 0a3.433 3.433 0 0 1-2.518-1.042 3.433 3.433 0 0 1-1.041-2.517 3.43 3.43 0 0 1 1.041-2.517A3.428 3.428 0 0 1 53.74 0c.984 0 1.822.338 2.516 1.012.695.676 1.043 1.504 1.043 2.489 0 .983-.348 1.832-1.043 2.545-.694.715-1.532 1.07-2.516 1.07z" id="a"/></defs><use fill="#FFFFFF" xlink:href="#a" fill-rule="evenodd"/></svg>