<svg width="990" height="921" xmlns="http://www.w3.org/2000/svg"><defs><filter x="0%" y="0%" width="100%" height="100%" filterUnits="objectBoundingBox" id="a"><feGaussianBlur stdDeviation="0 0" in="SourceGraphic"/></filter></defs><g transform="translate(1 1)" fill="none" fill-rule="evenodd"><circle fill-opacity=".2" fill="#A2E3D4" filter="url(#a)" cx="495" cy="494" r="379"/><circle stroke="#A2E3D4" stroke-width="2" cx="494" cy="494" r="494"/><path d="M140 247.514s7.5-.849 7.45-8.514c0 0 1.134 7.754 7.55 8.514 0 0-6.975.686-7.044 8.486 0 0-.251-8.552-7.956-8.486m238 34.502s9.001-.998 8.94-10.016c0 0 1.36 9.121 9.06 10.016 0 0-8.37.805-8.456 9.984 0 0-.3-10.062-9.544-9.984M150 445.514s7.5-.847 7.45-8.514c0 0 1.132 7.754 7.55 8.514 0 0-6.975.686-7.046 8.486 0 0-.249-8.552-7.954-8.486m199 172s7.5-.847 7.45-8.514c0 0 1.134 7.754 7.55 8.514 0 0-6.975.686-7.044 8.486 0 0-.251-8.552-7.956-8.486m242-402.508s3.5-.4 3.477-4.006c0 0 .528 3.647 3.523 4.006 0 0-3.255.322-3.288 3.994 0 0-.117-4.025-3.712-3.994M888 587.51s6.501-.748 6.457-7.51c0 0 .982 6.84 6.543 7.51 0 0-6.045.605-6.105 7.49 0 0-.217-7.545-6.895-7.49m-70-130.001s5-.55 4.968-5.509c0 0 .755 5.018 5.032 5.509 0 0-4.649.444-4.696 5.491 0 0-.167-5.534-5.304-5.491" fill="#007C5A"/></g></svg>