<?xml version="1.0" encoding="UTF-8"?>
<svg width="24px" height="20px" viewBox="0 0 24 20" version="1.1" xmlns="http://www.w3.org/2000/svg" xmlns:xlink="http://www.w3.org/1999/xlink">
    <!-- Generator: Sketch 48.1 (47250) - http://www.bohemiancoding.com/sketch -->
    <title>Twitter-black</title>
    <desc>Created with Sketch.</desc>
    <defs></defs>
    <g id="Home-3" stroke="none" stroke-width="1" fill="none" fill-rule="evenodd" transform="translate(-1166.000000, -3056.000000)">
        <g id="Group-10" transform="translate(1112.000000, 3054.000000)" fill="#FFFFFF">
            <path d="M78,4.36764175 C77.1181546,4.76923077 76.1686917,5.04080896 75.1727417,5.1621524 C76.1898222,4.5381004 76.9702412,3.54857349 77.3379116,2.3698086 C76.3856313,2.94763453 75.3333333,3.36800289 74.2091918,3.593355 C73.3132594,2.61249549 72.0327522,2 70.6156013,2 C67.8982215,2 65.693608,4.26074395 65.693608,7.04875406 C65.693608,7.44456482 65.735869,7.82881907 65.8203909,8.19862766 C61.7281211,7.9877212 58.100722,5.97977609 55.6707167,2.92163236 C55.2466984,3.66991694 55.0044022,4.5381004 55.0044022,5.46262189 C55.0044022,7.21343445 55.8735693,8.75911882 57.1949287,9.66486096 C56.389153,9.64030336 55.6284557,9.41061755 54.9635499,9.0350307 L54.9635499,9.09714698 C54.9635499,11.5442398 56.6610319,13.5854099 58.9149498,14.0476706 C58.5022011,14.166125 58.0669132,14.2253521 57.6175383,14.2253521 C57.3005811,14.2253521 56.9906674,14.1950163 56.6906145,14.1357891 C57.3174855,16.1408451 59.1347068,17.6013001 61.2900158,17.6403034 C59.6052122,18.9953052 57.4808945,19.8028169 55.1748547,19.8028169 C54.7776017,19.8028169 54.3845747,19.7797039 54,19.7334778 C56.1792569,21.163597 58.7684451,22 61.5478077,22 C70.6057404,22 75.5573164,14.3076923 75.5573164,7.63524738 C75.5573164,7.41567353 75.5530903,7.19609967 75.5446381,6.98085952 C76.5067794,6.26868906 77.3421377,5.38028169 78,4.36764175" id="Twitter"></path>
        </g>
    </g>
</svg>